# xmcd CD database file
#
# Track frame offsets:
#	183
#	14060
#	24985
#	35748
#	50448
#	60548
#	73485
#	84048
#	100473
#	116873
#	134598
#	151818
#	173810
#	193623
#	208173
#	221098
#	233973
#	247990
#	260423
#	273223
#
# Disc length: 3836 seconds
#
# Revision: 0
# Processed by: cddbd v1.4PL0 Copyright (c) Steve Scherf et al.
# Submitted via: CDex 1.50
#
DISCID=290efa14
DTITLE=Sarah Vaughan - 'round midnight CD2
DYEAR=1999
DGENRE=Jazz
TTITLE0=Misty
TTITLE1=Separate Ways
TTITLE2=Friendly Enemies
TTITLE3=I've Got The World on  a String
TTITLE4=Are You Certain
TTITLE5=Lord's Prayer
TTITLE6=When Your Lover Has Gone
TTITLE7='Round Midnight
TTITLE8=The Nearness Of You
TTITLE9=When Sunny Gets Blue
TTITLE10=Sophisticated Lady
TTITLE11=Remember You
TTITLE12=Star Eyes
TTITLE13=It's You Or No-One
TTITLE14=Love me or Leave me
TTITLE15=East Of The Sun
TTITLE16=The One I LOve (Belongs To somebody Else)
TTITLE17=Sonetimes I Feel Like A Motherless Child
TTITLE18=What A Difference A Day Makes
TTITLE19=Lover Man
EXTD=YEAR: 1999
EXTT0=
EXTT1=
EXTT2=
EXTT3=
EXTT4=
EXTT5=
EXTT6=
EXTT7=
EXTT8=
EXTT9=
EXTT10=
EXTT11=
EXTT12=
EXTT13=
EXTT14=
EXTT15=
EXTT16=
EXTT17=
EXTT18=
EXTT19=
PLAYORDER=
